<svg width="500" className="relative object-cover w-full h-56 sm:h-96 " height="400" viewBox="0 0 500 400" fill="none"    xmlns="http://www.w3.org/2000/svg"> <g clipPath="url(#clip0_1352_1904)">
        <path
          fillRule="evenodd"
          clipRule="evenodd"
          d="M309.681 40.9851C281.309 -23.1353 100.926 -11.3998 45.4235 71.8386C-10.079 155.077 53.3524 340.002 110.212 340.002C167.072 340.002 167.072 215.147 190.517 178.48C213.962 141.812 338.052 105.106 309.681 40.9851Z"
          fill="#F2CB05"
          fillOpacity="0.7"
        />
        <path
          fillRule="evenodd"
          clipRule="evenodd"
          d="M309.01 243.9C292.929 274.022 264.754 251.32 228.53 219.809C192.306 188.298 146.378 157.188 162.459 127.066C178.539 96.9433 236.312 100.791 272.537 132.303C308.761 163.814 325.091 213.777 309.01 243.9Z"
          fill="#5524BF"
          fillOpacity="0.6"
        />
        <path
          fillRule="evenodd"
          clipRule="evenodd"
          d="M48.2004 315.224C25.2826 315.224 -5.98329e-05 293.281 -5.98329e-05 265.319C-5.98329e-05 237.357 25.2826 215.414 48.2004 215.414C71.1182 215.414 79.6404 247.413 79.6404 270.347C79.6404 293.281 71.1182 315.224 48.2004 315.224Z"
          fill="#B091F2"
          fillOpacity="0.7"
        />
        <path
          fillRule="evenodd"
          clipRule="evenodd"
          d="M460.552 231.689L435.141 320.86L416.602 386.584H403.08L422.781 231.689H460.552Z"
          fill="#191847"
        />
        <path
          fillRule="evenodd"
          clipRule="evenodd"
          d="M467.347 231.689C467.935 277.649 469.939 302.717 470.556 306.893C471.173 311.068 480.504 337.632 498.549 386.584H484.541C461.568 339.623 448.745 313.059 446.07 306.893C443.394 300.726 435.139 275.658 422.704 231.689H467.347Z"
          fill="#2F3676"
        />
        <path
          fillRule="evenodd"
          clipRule="evenodd"
          d="M499.801 399.2L499.1 384.481L484.382 384.481C473.913 391.841 457.047 396.396 457.047 396.396V399.2H483.681L492.792 397.798V399.2H499.801Z"
          fill="#191847"
        />
        <path
          fillRule="evenodd"
          clipRule="evenodd"
          d="M418.499 399.2L417.798 384.481L403.079 384.481C392.611 391.841 375.745 396.396 375.745 396.396V399.2H402.379L411.49 397.798V399.2H418.499Z"
          fill="#191847"
        />
        <path
          fillRule="evenodd"
          clipRule="evenodd"
          d="M431.426 128.508C427.371 130.973 423.387 132.163 421.517 131.677C416.828 130.459 416.397 113.16 420.025 106.34C423.654 99.5204 442.306 96.5479 443.246 110.06C443.572 114.749 441.62 118.935 438.735 122.35L443.908 146.664H428.881L431.426 128.508Z"
          fill="#B28B67"
        />
        <path
          fillRule="evenodd"
          clipRule="evenodd"
          d="M439.889 125.391C441.775 116.93 447.148 111.162 446.328 107.38C445.507 103.599 441.954 102.677 441.954 102.677C441.954 102.677 440.116 95.1792 430.098 96.2988C420.081 97.4184 413.967 101.613 416.607 110.844C419.035 110.844 421.965 109.959 426.016 111.476C427.944 112.198 428.775 115.952 428.775 115.952H430.605C430.605 115.952 433.271 111.496 435.862 112.678C438.453 113.859 437.04 118.415 437.04 118.415L437.942 125.391H439.889Z"
          fill="#191847"
        />
        <path
          fillRule="evenodd"
          clipRule="evenodd"
          d="M390.219 152.973L414.547 166.297L405.563 175.94L387.886 159.755C378.574 157.188 374.316 155.311 375.111 154.122C375.781 153.12 376.862 153.155 377.858 153.187C378.634 153.212 379.358 153.235 379.796 152.766C380.795 151.693 378.888 147.941 376.926 144.459C374.964 140.976 377.062 141.279 378.262 141.78C382.188 144.438 386.174 148.169 390.219 152.973ZM365.76 171.669L376.446 177.539L375.837 188.263C375.837 188.263 368.916 183.268 362.962 181.607C355.37 179.491 352.298 177.874 348.588 173.147C346.603 170.618 344.918 165.533 346.808 163.877C347.533 163.242 350.233 164.743 352.988 166.274C355.088 167.441 357.22 168.625 358.534 168.896C360.302 169.26 360.095 166.968 359.929 165.137C359.811 163.823 359.713 162.746 360.383 163.057C363.511 163.111 365.76 171.669 365.76 171.669Z"
          fill="#997659"
        />
        <path
          fillRule="evenodd"
          clipRule="evenodd"
          d="M426.395 163.329C417.874 163.239 406.511 161.439 394.386 153.743L389.625 164.362C397.988 172.661 409.747 179.48 420.029 179.192C428.132 178.964 432.273 169.163 426.395 163.329Z"
          fill="#2026A2"
        />
        <path
          fillRule="evenodd"
          clipRule="evenodd"
          d="M449.376 236.076C457.477 235.02 464.92 234.049 469.332 234.918C474.281 218.844 470.171 208.724 466.377 199.382C464.091 193.751 461.919 188.403 461.914 182.205C461.901 164.154 447.407 136.37 445.274 136.37H444.344H427.444H425.827C424.958 147.54 421.247 159.634 417.512 171.806C416.648 174.621 415.783 177.441 414.952 180.254C400.99 183.726 369.094 172.376 369.094 172.376C369.094 172.376 361.171 188.766 361.769 195.746C380.186 205.366 395.949 209.612 408.908 209.829C408.499 217.48 409.431 224.761 412.559 231.413C416.752 240.329 434.215 238.052 449.376 236.076Z"
          fill="#1F28CF"
        />
      </g>
      <defs>
        <clipPath id="clip0_1352_1904">
          <rect width="500" height="400" fill="white" />
        </clipPath>
      </defs>
      </svg>
