    <svg
      width="600"
      height="400"
      viewBox="0 0 600 400"
      fill="none"
      xmlns="http://www.w3.org/2000/svg"
    >
      <g clipPath="url(#clip0_1355_1902)">
        <path
          fillRule="evenodd"
          clipRule="evenodd"
          d="M9.93786 157.736C28.6043 189.052 50.3449 219.374 63.4008 253.613C62.8747 249.577 62.3168 245.545 61.6924 241.52C58.3797 220.179 54.2624 198.994 49.9359 177.835C47.7326 167.062 45.4023 156.327 43.0123 145.594C41.7268 139.829 40.4572 134.061 39.1452 128.302C38.8275 126.906 38.5544 124.469 38.1566 122C50.8449 163.637 63.0807 205.305 72.0308 247.942C73.2049 253.538 74.2048 259.124 75.0238 264.7C75.304 263.428 75.5796 262.156 75.8812 260.887C79.5026 245.68 84.9347 230.594 91.4027 216.374C94.4947 209.575 98.0464 202.924 102.228 196.726C104.836 192.863 110.986 188.271 113.364 184.314C100.355 208.176 95.657 238.032 88.1451 263.973C86.3116 270.304 84.4667 276.624 82.6591 282.955C93.9873 260.237 111.563 241.571 136 233.483C106.42 253.027 88.678 287.254 76.7221 322.26C76.6827 322.675 76.6359 323.09 76.5954 323.506C80.1136 316.829 84.5452 310.789 90.5515 306.56C103.407 297.504 117.667 300.142 130.137 307.91C120.35 301.689 102.663 307.354 94.428 313.677C88.5329 318.203 83.4948 324.275 79.1198 330.2C78.0715 331.62 76.6413 333.277 75.1304 335.044C73.012 348.795 69.5599 362.452 64.6725 376C65.479 372.111 64.8959 365.892 65.1195 362.993C65.1439 362.68 65.1636 362.365 65.1878 362.053C64.4448 365.019 63.7271 367.951 63.036 370.837C64.4098 365.331 65.1564 359.583 65.7392 353.776C65.8894 351.281 66.0358 348.785 66.1905 346.29C66.1414 341.553 65.9464 336.799 65.6164 332.036C64.4466 327.408 63.1367 323.042 62.0565 319.411C58.1585 306.31 52.4442 293.76 45.4108 282.051C38.9937 271.366 31.3124 261.688 22.4448 252.935C17.6643 248.217 12.6614 243.725 7.72888 239.17C5.94526 237.523 2.75722 233.474 0 231.363C20.0805 242.434 40.7489 254.41 55.3976 272.248C53.6802 265.653 51.8149 259.151 49.8417 252.78C39.8311 220.454 27.1913 186.953 9.93786 157.736Z"
          fill="#F2F2F2"
        />
        <path
          fillRule="evenodd"
          clipRule="evenodd"
          d="M30 335C30 370.899 32.8428 400 71 400C109.157 400 112 370.899 112 335"
          fill="#E0E0E0"
        />
        <path
          fillRule="evenodd"
          clipRule="evenodd"
          d="M287.935 122.244C294.411 126.147 300.774 128.033 303.76 127.263C311.25 125.333 311.938 97.9351 306.143 87.1339C300.349 76.3328 270.558 71.625 269.057 93.0255C268.536 100.453 271.654 107.081 276.262 112.49L268 151H292L287.935 122.244Z"
          fill="#B28B67"
        />
        <path
          fillRule="evenodd"
          clipRule="evenodd"
          d="M258.593 85.9017C257.818 85.1335 257.395 84.0371 257.03 82.9959C256.65 81.9144 256.281 80.8217 256.028 79.696C255.525 77.4468 255.52 74.8602 257.124 73.1136C258.411 71.7131 260.342 71.0849 262.124 70.9484C263.311 70.8573 264.531 71.0236 265.669 71.3978C266.798 71.7689 267.771 72.5086 268.866 72.9678C268.908 70.5439 269.323 68.0077 270.553 65.9381C271.736 63.9468 273.622 62.8293 275.771 62.5337C277.976 62.2303 280.154 62.7463 282.128 63.8139C282.622 64.0813 283.112 64.3614 283.581 64.6784C283.973 64.9439 284.381 65.2636 284.841 65.3716C285.355 65.4921 285.609 65.1957 285.942 64.8212C286.334 64.3822 286.774 63.9955 287.24 63.6527C289.302 62.1373 292.007 61.5142 294.396 62.4225C295.496 62.8411 296.567 63.5518 297.313 64.5313C297.979 65.4043 298.454 66.7892 299.372 67.3975C299.762 67.6557 300.037 67.3136 300.392 67.0608C300.925 66.6809 301.434 66.2617 301.973 65.8921C302.731 65.3729 303.552 64.9845 304.43 64.7812C305.717 64.4836 307.494 64.5534 307.862 66.2382C308 66.871 307.894 67.5479 307.85 68.1855C307.789 69.0611 307.725 69.9363 307.649 70.8106C307.591 71.4744 307.518 72.1155 307.393 72.7674C307.326 73.1148 307.117 73.7626 307.266 74.1106C307.452 74.5455 308.311 74.2982 308.679 74.3134C309.404 74.3433 310.132 74.4705 310.803 74.7804C311.322 75.0206 311.869 75.3738 312.088 75.9694C312.223 76.3353 312.187 76.7112 312.124 77.0876C312.047 77.5393 312.135 77.779 312.192 78.2348C313.166 77.7552 316.541 76.6896 316.965 78.4351C317.107 79.0163 316.785 79.673 316.539 80.1632C316.108 81.0229 315.543 81.8087 314.966 82.5581C313.761 84.1214 312.323 85.4698 310.776 86.623C312.589 87.4289 313.062 89.806 311.493 91.2223C310.8 91.8476 309.868 91.9868 308.994 91.9468C308.674 91.9321 308.213 91.8092 307.961 91.8649C307.825 91.8948 307.68 92.0097 307.493 92.0225C306.259 92.107 304.866 91.8098 303.66 91.536C301.512 91.0482 299.477 90.0302 297.816 88.4797C297.39 88.082 297.038 87.853 296.464 87.8589C295.962 87.864 295.468 88.0018 294.966 88.0145C293.638 88.0484 292.44 87.3989 291.206 86.9665C291.13 88.6333 290.655 90.4691 289.974 91.9687C289.418 93.1915 288.257 93.3692 287.116 93.4765C283.467 93.8198 279.806 93.4367 276.152 93.4417C279.689 94.2411 283.343 94.5705 286.848 95.5112C288.432 95.9362 287.222 97.004 286.545 97.7443C285.43 98.9632 284.6 100.474 284.025 102.065C282.295 99.8096 279.237 98.3238 276.528 99.0165C273.535 99.7818 271.427 103.83 273.341 106.74C274.453 108.429 276.459 109.081 278.129 109.807C276.827 111.161 276.511 113.161 275.727 114.846C275.341 115.677 274.798 116.617 273.933 116.906C273.613 117.013 273.238 117.022 272.986 117.283C272.673 117.606 272.599 117.967 272.199 118.245C270.606 119.352 268.117 119.267 266.705 117.821C265.428 116.514 265.76 114.445 266.827 113.12C265.129 112.412 262.036 111.502 262.711 108.857C259.032 108.613 250.1 102.646 255.037 98.2863C252.327 96.7548 249.838 93.012 251.578 89.7127C252.919 87.1721 256.036 86.0364 258.593 85.9017Z"
          fill="#191847"
        />
        <path
          fillRule="evenodd"
          clipRule="evenodd"
          d="M224.623 276H301.877L312 400H197L224.623 276Z"
          fill="#E0E0E0"
        />
        <path
          fillRule="evenodd"
          clipRule="evenodd"
          d="M224.623 276H248.383L262.604 400H197L224.623 276Z"
          fill="#A6A6A6"
        />
        <path
          fillRule="evenodd"
          clipRule="evenodd"
          d="M344.323 300.567C335.642 318.978 322.077 363.672 322.077 363.672L333.593 368.934C333.593 368.934 362.814 321.952 380.672 289.836C379.84 297.066 378.993 305.206 378.208 313.763C376.347 334.033 378.207 377.827 379.208 390.477C379.837 398.428 390.64 396.762 391.648 390.457C391.819 389.389 392.515 385.639 393.554 380.045C398.647 352.613 411.976 280.818 412 263.238C412.009 256.165 398.19 249.81 389.953 254.756C384.295 248.719 373.588 245.24 367.436 255.212C363.525 261.552 354.233 279.55 344.323 300.567Z"
          fill="#B28B67"
        />
        <path
          fillRule="evenodd"
          clipRule="evenodd"
          d="M322.9 347.125L362.427 253.487C371.897 238.255 398.446 256.587 395.217 265.422C387.885 285.479 350.6 350.414 348.415 356.39L322.9 347.125Z"
          fill="#1F28CF"
        />
        <path
          fillRule="evenodd"
          clipRule="evenodd"
          d="M323.664 358.185C322.971 357.241 321.63 357.017 320.734 357.771C319.099 359.146 316.748 361.264 315.899 362.734C314.547 365.076 312.733 370.021 312.733 370.021C315.45 371.59 361.578 398.222 361.578 398.222C361.578 398.222 367.116 393.027 363.304 390.157C359.491 387.286 357.012 385.315 357.012 385.315L340.152 362.087C339.821 361.631 339.179 361.538 338.733 361.882L335.23 364.579C335.23 364.579 330.409 364.159 328.035 362.788C326.589 361.953 324.824 359.768 323.664 358.185Z"
          fill="#E4E4E4"
        />
        <path
          fillRule="evenodd"
          clipRule="evenodd"
          d="M379.45 384.284C378.378 383.813 377.104 384.29 376.705 385.391C375.977 387.398 375 390.409 375 392.106C375 394.811 375.901 400 375.901 400C379.039 400 432.303 400 432.303 400C432.303 400 434.502 392.732 429.765 392.152C425.028 391.573 421.895 391.106 421.895 391.106L395.68 379.419C395.165 379.189 394.563 379.43 394.348 379.951L392.663 384.039C392.663 384.039 388.278 386.085 385.537 386.085C383.868 386.085 381.246 385.074 379.45 384.284Z"
          fill="#E4E4E4"
        />
        <path
          fillRule="evenodd"
          clipRule="evenodd"
          d="M414.77 270.433C414.77 297 402.154 358.97 402.146 364.82L375 364.841C375 364.841 380.96 281.898 379.227 281.004C377.493 280.111 308.176 287.925 287.386 287.925C257.408 287.925 245.006 269.02 244 234H303.386C315.478 235.294 378.549 248.015 401.972 252.388C412 254.261 414.77 263.115 414.77 270.433Z"
          fill="#2B44FF"
        />
        <path
          fillRule="evenodd"
          clipRule="evenodd"
          d="M347.348 152.69L312.638 171.7L325.456 185.458L350.677 162.365C363.963 158.704 370.039 156.025 368.905 154.329C367.948 152.9 366.406 152.949 364.985 152.995C363.878 153.031 362.845 153.064 362.22 152.394C360.794 150.863 363.515 145.51 366.315 140.541C369.114 135.573 366.121 136.005 364.409 136.72C358.807 140.512 353.12 145.835 347.348 152.69ZM382.247 179.364L367 187.74L367.868 203.04C367.868 203.04 377.743 195.913 386.238 193.544C397.071 190.524 401.453 188.218 406.746 181.473C409.579 177.864 411.982 170.61 409.286 168.248C408.252 167.341 404.399 169.482 400.468 171.667C397.472 173.332 394.43 175.022 392.556 175.408C390.034 175.927 390.329 172.657 390.565 170.044C390.734 168.17 390.873 166.633 389.918 167.077C385.455 167.154 382.247 179.364 382.247 179.364Z"
          fill="#997659"
        />
        <path
          fillRule="evenodd"
          clipRule="evenodd"
          d="M295.734 167.465C307.892 167.337 324.104 164.769 341.402 153.789L348.196 168.939C336.264 180.78 319.486 190.51 304.816 190.098C293.255 189.773 287.347 175.789 295.734 167.465Z"
          fill="#2026A2"
        />
        <path
          fillRule="evenodd"
          clipRule="evenodd"
          d="M262.945 271.259C251.387 269.752 240.766 268.367 234.473 269.606C227.411 246.673 233.275 232.234 238.688 218.905C241.95 210.871 245.049 203.241 245.056 194.397C245.075 168.642 265.754 129 268.797 129H269.67H293.783H296.544C297.784 144.937 303.079 162.193 308.407 179.56C309.652 183.615 310.898 187.677 312.095 191.729C332.26 196.307 377.036 180.373 377.036 180.373C377.036 180.373 388.34 203.759 387.487 213.717C361.424 227.331 339.087 233.401 320.683 233.802C321.268 244.721 319.939 255.112 315.474 264.606C309.491 277.327 284.576 274.079 262.945 271.259Z"
          fill="#1F28CF"
        />
        <path
          fillRule="evenodd"
          clipRule="evenodd"
          d="M416.773 148.225C416.773 148.231 416.772 148.236 416.77 148.243C416.772 148.237 416.771 148.217 416.773 148.225Z"
          fill="#C5CFD6"
        />
        <path
          fillRule="evenodd"
          clipRule="evenodd"
          d="M416.771 148.234C416.771 148.235 416.77 148.237 416.771 148.239C416.77 148.234 416.775 148.217 416.771 148.234Z"
          fill="#C5CFD6"
        />
        <path
          fillRule="evenodd"
          clipRule="evenodd"
          d="M416.784 148.143C416.782 148.164 416.778 148.185 416.775 148.206C416.776 148.196 416.778 148.187 416.78 148.176C416.742 148.454 416.765 148.274 416.784 148.143Z"
          fill="#C5CFD6"
        />
        <path
          fillRule="evenodd"
          clipRule="evenodd"
          d="M416.777 148.207C416.775 148.217 416.774 148.228 416.772 148.237C416.757 148.299 416.777 148.207 416.777 148.207Z"
          fill="#C5CFD6"
        />
        <path
          fillRule="evenodd"
          clipRule="evenodd"
          d="M416.771 148.234C416.771 148.233 416.771 148.233 416.772 148.232C416.771 148.233 416.771 148.233 416.771 148.234Z"
          fill="#C5CFD6"
        />
        <path
          fillRule="evenodd"
          clipRule="evenodd"
          d="M416.769 148.242C416.766 148.255 416.785 148.191 416.769 148.242V148.242Z"
          fill="#C5CFD6"
        />
        <path
          fillRule="evenodd"
          clipRule="evenodd"
          d="M416.771 148.234L416.772 148.232C416.772 148.233 416.772 148.234 416.771 148.234Z"
          fill="#C5CFD6"
        />
        <rect
          x="355"
          y="108.192"
          width="100"
          height="66"
          rx="4"
          transform="rotate(-14 355 108.192)"
          fill="#2B44FF"
        />
        <path
          fillRule="evenodd"
          clipRule="evenodd"
          d="M396.335 117.75L379.722 170.331L435.689 156.377L396.335 117.75Z"
          fill="black"
          fillOpacity="0.2"
        />
        <path
          fillRule="evenodd"
          clipRule="evenodd"
          d="M428.233 122.772L411.819 162.329L461.297 149.992L428.233 122.772Z"
          fill="black"
          fillOpacity="0.2"
        />
        <path
          fillRule="evenodd"
          clipRule="evenodd"
          d="M438.932 120.579C444.023 119.31 447.121 114.154 445.851 109.063C444.582 103.972 439.426 100.874 434.335 102.144C429.245 103.413 426.147 108.569 427.416 113.66C428.685 118.751 433.841 121.849 438.932 120.579Z"
          fill="white"
        />
        <path
          fillRule="evenodd"
          clipRule="evenodd"
          d="M547 106C576.271 106 600 82.2711 600 53C600 23.7289 576.271 0 547 0C517.729 0 494 23.7289 494 53C494 82.2711 517.729 106 547 106Z"
          fill="#F2F2F2"
        />
        <path
          fillRule="evenodd"
          clipRule="evenodd"
          d="M547 14C548.657 14 550 12.6569 550 11C550 9.34315 548.657 8 547 8C545.343 8 544 9.34315 544 11C544 12.6569 545.343 14 547 14Z"
          fill="#E0E0E0"
        />
        <path
          fillRule="evenodd"
          clipRule="evenodd"
          d="M505 56C506.657 56 508 54.6569 508 53C508 51.3431 506.657 50 505 50C503.343 50 502 51.3431 502 53C502 54.6569 503.343 56 505 56Z"
          fill="#E0E0E0"
        />
        <path
          fillRule="evenodd"
          clipRule="evenodd"
          d="M589 56C590.657 56 592 54.6569 592 53C592 51.3431 590.657 50 589 50C587.343 50 586 51.3431 586 53C586 54.6569 587.343 56 589 56Z"
          fill="#E0E0E0"
        />
        <path
          fillRule="evenodd"
          clipRule="evenodd"
          d="M547 98C548.657 98 550 96.6569 550 95C550 93.3431 548.657 92 547 92C545.343 92 544 93.3431 544 95C544 96.6569 545.343 98 547 98Z"
          fill="#E0E0E0"
        />
        <path
          fillRule="evenodd"
          clipRule="evenodd"
          d="M547 17L549 52H545L547 17Z"
          fill="#A6A6A6"
        />
        <path
          fillRule="evenodd"
          clipRule="evenodd"
          d="M564.698 70.6984L546.314 55.142L549.142 52.3136L564.698 70.6984Z"
          fill="#A6A6A6"
        />
        <path
          fillRule="evenodd"
          clipRule="evenodd"
          d="M547 57C549.209 57 551 55.2091 551 53C551 50.7909 549.209 49 547 49C544.791 49 543 50.7909 543 53C543 55.2091 544.791 57 547 57Z"
          fill="#E0E0E0"
        />
      </g>
      <defs>
        <clipPath id="clip0_1355_1902">
          <rect width="600" height="400" fill="white" />
        </clipPath>
      </defs>
    </svg>
