<svg width="645" height="265" viewBox="0 0 645 265" fill="none" xmlns="http://www.w3.org/2000/svg">
<path d="M638.05 80.625C619.16 80.625 603.85 65.2068 603.85 46.1875C603.85 27.1682 619.16 11.75 638.05 11.75" stroke="#F26052" stroke-width="13" stroke-linecap="round" stroke-linejoin="round"/>
<path d="M145 39.7304C145 55.495 157.76 68.275 173.5 68.275C189.24 68.275 202 55.495 202 39.7304V7.47498" stroke="#5524BF" stroke-width="13" stroke-linecap="round" stroke-linejoin="round"/>
<path d="M638.05 226.45V146.498C638.05 130.842 625.288 118.15 609.55 118.15C593.812 118.15 581.05 130.842 581.05 146.498V158.874" stroke="#DA774A" stroke-width="13" stroke-linecap="round" stroke-linejoin="round"/>
<path d="M157.35 212.675C167.843 212.675 176.35 204.168 176.35 193.675C176.35 183.182 167.843 174.675 157.35 174.675C146.856 174.675 138.35 183.182 138.35 193.675C138.35 204.168 146.856 212.675 157.35 212.675Z" stroke="#5524BF" stroke-width="13" stroke-linecap="round" stroke-linejoin="round"/>
<path d="M34.0874 203.65C19.0029 203.65 6.7749 215.878 6.7749 230.963C6.7749 246.047 19.0029 258.275 34.0874 258.275C49.1719 258.275 61.3999 246.047 61.3999 230.963V203.65" stroke="#5524BF" stroke-width="13" stroke-linecap="round" stroke-linejoin="round"/>
<path d="M336.9 73.4006C320.111 73.4006 306.5 86.8206 306.5 103.375C306.5 119.93 320.111 133.35 336.9 133.35C353.689 133.35 367.3 119.93 367.3 103.375V7" stroke="#2405F2" stroke-width="13" stroke-linecap="round" stroke-linejoin="round"/>
<path d="M205.184 194.15C205.184 167.13 183.63 145.225 157.042 145.225C130.454 145.225 108.9 167.13 108.9 194.15C108.9 221.17 130.454 243.075 157.042 243.075H283.225" stroke="#F2CB05" stroke-width="13" stroke-linecap="round" stroke-linejoin="round"/>
<path fill-rule="evenodd" clip-rule="evenodd" d="M403.875 90.3625C403.875 65.047 424.176 44.525 449.219 44.525H495.806C520.851 44.525 541.15 65.047 541.15 90.3625C541.15 115.678 520.851 136.2 495.806 136.2H449.219C424.176 136.2 403.875 115.678 403.875 90.3625Z" stroke="#DA774A" stroke-width="13" stroke-linecap="round" stroke-linejoin="round"/>
<path d="M312.2 158.017V161.716C312.2 182.777 295.08 199.85 273.962 199.85C252.844 199.85 235.725 182.777 235.725 161.716V45.6085C235.725 24.5479 252.844 7.47498 273.962 7.47498C295.08 7.47498 312.2 24.5479 312.2 45.6085V46.7468" stroke="#F2CB05" stroke-width="13" stroke-linecap="round" stroke-linejoin="round"/>
<path d="M395.562 231.2H422.248C440.17 231.2 454.7 217.483 454.7 200.563C454.7 183.642 440.17 169.925 422.248 169.925H368.876C350.954 169.925 336.425 183.642 336.425 200.563" stroke="#5524BF" stroke-width="13" stroke-linecap="round" stroke-linejoin="round"/>
<path d="M198.675 103.425H134.701C94.218 103.425 61.3999 136.388 61.3999 177.05" stroke="#5524BF" stroke-width="13" stroke-linecap="round" stroke-linejoin="round"/>
<path d="M581.525 192.212V201.846C581.525 215.435 570.475 226.45 556.852 226.45C543.224 226.45 532.174 215.435 532.174 201.846V193.866C532.174 180.381 521.209 169.45 507.69 169.45C494.164 169.45 483.2 180.381 483.2 193.866V203.688" stroke="#F26052" stroke-width="13" stroke-linecap="round" stroke-linejoin="round"/>
</svg>

