<svg width="440" height="308" viewBox="0 0 440 308" fill="none" xmlns="http://www.w3.org/2000/svg">
<g clip-path="url(#clip0_1779_1901)">
<path d="M420.149 300.2H19.3269C8.67009 300.2 0 291.531 0 280.874V19.3269C0 8.67009 8.67009 0 19.3269 0H420.149C430.806 0 439.476 8.67009 439.476 19.3269V280.874C439.476 291.531 430.806 300.2 420.149 300.2V300.2ZM19.3269 1.6806C9.5811 1.6806 1.6806 9.5811 1.6806 19.3269V280.874C1.6806 290.619 9.5811 298.52 19.3269 298.52H420.149C429.895 298.52 437.795 290.619 437.795 280.874V114.073C437.795 52.0005 387.475 1.6806 325.403 1.6806H19.3269V1.6806Z" fill="#F2F2F2"/>
<path d="M125.703 40.6074H96.6975C94.6859 40.6074 93.0491 38.9706 93.0491 36.959C93.0491 34.9473 94.6859 33.3105 96.6975 33.3105H125.703C127.714 33.3105 129.351 34.9473 129.351 36.959C129.351 38.9706 127.714 40.6074 125.703 40.6074V40.6074Z" fill="#E6E6E6"/>
<path d="M280.236 33.6753H251.231C249.418 33.6753 247.948 35.1454 247.948 36.9589C247.948 38.7723 249.418 40.2425 251.231 40.2425H280.236C282.05 40.2425 283.52 38.7723 283.52 36.9589C283.52 35.1454 282.05 33.6753 280.236 33.6753Z" fill="#5524BF"/>
<path d="M238.644 40.6074H209.639C207.628 40.6074 205.991 38.9706 205.991 36.959C205.991 34.9473 207.628 33.3105 209.639 33.3105H238.644C240.656 33.3105 242.293 34.9473 242.293 36.959C242.293 38.9706 240.656 40.6074 238.644 40.6074Z" fill="#E6E6E6"/>
<path d="M309.232 265.204H52.8869C42.2301 265.204 33.5601 256.535 33.5601 245.877V93.7834C33.5601 83.1266 42.2301 74.4565 52.8869 74.4565H309.232C319.888 74.4565 328.558 83.1266 328.558 93.7834V245.877C328.558 256.535 319.888 265.204 309.232 265.204V265.204Z" fill="#F2F2F2"/>
<path d="M359.913 116.29H103.567C92.9135 116.29 84.2449 124.958 84.2449 135.612V287.707C84.2449 298.368 92.9135 307.037 103.567 307.037H359.913C370.573 307.037 379.242 298.368 379.242 287.707V135.612C379.242 124.958 370.573 116.29 359.913 116.29V116.29Z" fill="white" fill-opacity="0.85"/>
<path d="M359.913 307.036H103.568C92.9115 307.036 84.2415 298.366 84.2415 287.709V135.615C84.2415 124.958 92.9115 116.288 103.568 116.288H359.913C370.57 116.288 379.24 124.958 379.24 135.615V287.709C379.24 298.366 370.57 307.036 359.913 307.036V307.036ZM103.568 117.969C93.8226 117.969 85.922 125.869 85.922 135.615V287.709C85.922 297.455 93.8226 305.355 103.568 305.355H359.913C369.659 305.355 377.559 297.455 377.559 287.709V230.361C377.559 168.289 327.239 117.969 265.167 117.969H103.568V117.969Z" fill="#233240"/>
<path d="M248.607 253.668C248.001 253.668 247.512 254.079 247.512 254.587V266.276C245.177 269.543 245.133 272.785 247.512 275.991H247.636V286.11H247.512V298.449C247.512 298.957 248.001 299.368 248.607 299.368C249.212 299.368 249.701 298.957 249.701 298.449V254.587C249.701 254.079 249.212 253.668 248.607 253.668V253.668Z" fill="#F2F2F2"/>
<path d="M201.177 253.668C200.572 253.668 200.083 254.079 200.083 254.587V266.276C197.748 269.543 197.704 272.785 200.083 275.991H200.207V286.11H200.083V298.449C200.083 298.957 200.572 299.368 201.177 299.368C201.783 299.368 202.272 298.957 202.272 298.449V254.587C202.272 254.079 201.783 253.668 201.177 253.668V253.668Z" fill="#F2F2F2"/>
<path d="M289.228 270.976V279.586C249.455 295.56 193.254 293.26 162.263 279.586V270.954C162.814 270.984 180.139 281.951 180.69 281.98H180.698C182.474 282.06 184.242 282.14 186.01 282.213C187.227 282.264 188.436 282.323 189.636 282.367C191.116 282.432 192.596 282.491 194.068 282.549H194.077C194.734 282.578 195.376 282.6 196.034 282.629C202.266 282.87 208.409 283.074 214.452 283.235C219.632 283.381 224.73 283.49 229.746 283.556C232.468 283.6 235.173 283.622 237.845 283.644C240.37 283.651 242.874 283.506 245.344 283.651C267.409 284.948 289.045 272.713 289.228 270.976H289.228Z" fill="#F2F2F2"/>
<path d="M229.712 254.831C229.356 255.171 229.01 255.592 228.664 256.127V299.638H218.657L218.699 299.374L220.077 290.963L220.72 287.038L221.635 281.464L222.255 277.67L225.569 257.446C225.187 255.778 224.828 254.478 224.488 253.479L229.712 254.831H229.712Z" fill="#F2F2F2"/>
<path d="M252.163 231.887C251.716 232.348 251.128 232.8 250.423 233.243L250.412 233.25C250.458 232.75 250.463 232.243 250.423 231.734C249.956 225.563 243.455 219.114 237.013 221.73C233.428 222.347 230.049 226.791 228.899 222.771C226.264 217.22 223.499 222.983 219.711 222.902C211.627 223.875 206.083 225.432 202.632 227.662C200.304 229.164 198.926 230.976 198.364 233.125C197.492 236.498 198.619 240.693 201.228 245.829C201.675 245.493 202.263 245.163 202.965 244.843C203.338 244.673 203.749 244.505 204.186 244.341C203.189 246.401 202.827 248.79 202.965 251.213C203.432 259.672 209.936 268.507 216.374 264.922C219.96 264.077 223.339 257.99 224.488 263.499C224.58 263.759 224.668 264.005 224.762 264.229C224.762 264.233 224.766 264.233 224.766 264.238C226.111 267.572 227.499 267.107 229.046 265.929C229.046 265.929 229.05 265.929 229.05 265.925C230.437 264.878 231.949 263.271 233.676 263.32C241.761 261.986 247.305 259.851 250.756 256.795C253.084 254.731 254.462 252.247 255.024 249.302C255.895 244.683 254.769 238.928 252.163 231.887V231.887Z" fill="#F2F2F2"/>
<path d="M188.444 199.174C187.649 199.933 186.875 200.875 186.102 202.071V299.309H163.737L163.832 298.718L166.911 279.921L168.348 271.151L170.392 258.695L171.778 250.216L179.184 205.019C178.331 201.291 177.528 198.386 176.769 196.154L188.444 199.174V199.174Z" fill="#233240"/>
<path d="M238.617 145.346C237.187 142.522 235.553 139.574 233.743 136.495C241.821 139.224 242.594 142.376 238.617 145.346Z" fill="#5524BF"/>
<path d="M124.786 179.058C126.209 181.881 127.844 184.829 129.653 187.909C121.576 185.18 120.802 182.027 124.786 179.058Z" fill="#5524BF"/>
<path d="M238.617 147.9C237.618 148.93 236.304 149.941 234.728 150.931L234.704 150.945C234.807 149.828 234.817 148.695 234.728 147.557C233.685 133.766 219.157 119.355 204.76 125.2C196.748 126.579 189.196 136.51 186.627 127.527C180.739 115.123 174.558 128.002 166.094 127.819C148.027 129.994 135.637 133.474 127.924 138.458C122.721 141.815 119.642 145.864 118.387 150.666C116.439 158.203 118.956 167.58 124.786 179.058C125.786 178.306 127.099 177.569 128.668 176.854C129.503 176.473 130.42 176.099 131.397 175.732C129.171 180.335 128.361 185.674 128.668 191.09C129.712 209.994 144.247 229.739 158.636 221.727C166.648 219.836 174.201 206.233 176.769 218.546C176.973 219.126 177.17 219.676 177.382 220.176C177.382 220.186 177.389 220.186 177.389 220.196C180.396 227.648 183.497 226.608 186.956 223.977C186.956 223.977 186.963 223.977 186.963 223.967C190.064 221.627 193.442 218.036 197.302 218.146C215.369 215.165 227.76 210.394 235.472 203.563C240.675 198.952 243.754 193.4 245.009 186.819C246.958 176.497 244.44 163.634 238.617 147.9V147.9Z" fill="#5524BF"/>
<path d="M252.511 293.469C253.499 292.963 254.376 290.911 253.115 292.024C253.051 292.081 253.079 291.881 253.058 291.797L253.081 291.743C253.849 289.913 256.45 289.925 257.211 291.758C257.886 293.385 258.747 295.015 258.958 296.735C259.053 297.494 259.01 298.268 258.842 299.013C260.425 295.555 261.258 291.78 261.258 287.983C261.258 287.029 261.205 286.076 261.099 285.124C261.011 284.346 260.89 283.572 260.733 282.806C259.886 278.663 258.052 274.716 255.406 271.42C254.134 270.725 253.073 269.638 252.433 268.336C252.203 267.866 252.022 267.36 251.937 266.845C252.082 266.864 252.483 264.66 252.373 264.525C252.575 264.219 252.936 264.066 253.156 263.768C254.252 262.282 255.762 262.542 256.55 264.56C258.233 265.41 258.249 266.819 257.217 268.174C256.559 269.036 256.469 270.203 255.892 271.126C255.952 271.202 256.013 271.276 256.073 271.352C257.161 272.747 258.102 274.247 258.895 275.822C258.671 274.071 259.002 271.962 259.566 270.602C260.208 269.052 261.412 267.747 262.472 266.408C263.745 264.799 266.356 265.501 266.581 267.541L266.587 267.6C266.43 267.689 266.275 267.783 266.125 267.883C265.265 268.451 265.562 269.784 266.581 269.941L266.604 269.944C266.547 270.512 266.45 271.074 266.307 271.627C267.667 276.886 264.731 278.802 260.539 278.888C260.446 278.935 260.356 278.983 260.263 279.028C260.688 280.224 261.027 281.451 261.279 282.694C261.504 283.793 261.661 284.903 261.749 286.019C261.858 287.426 261.848 288.84 261.73 290.245L261.737 290.195C262.038 288.648 262.878 287.203 264.098 286.201C265.915 284.709 268.482 284.159 270.442 282.959C271.386 282.382 272.595 283.128 272.43 284.222L272.422 284.275C272.13 284.393 271.846 284.531 271.57 284.685C271.413 284.774 271.259 284.868 271.108 284.968C270.248 285.536 270.545 286.869 271.564 287.026L271.587 287.029L271.634 287.037C271.134 288.225 270.436 289.329 269.563 290.28C268.712 294.872 265.06 295.307 261.153 293.97H261.151C260.724 295.831 260.1 297.648 259.298 299.381H252.677C252.653 299.307 252.632 299.231 252.611 299.158C253.223 299.195 253.84 299.16 254.443 299.048C253.951 298.446 253.46 297.838 252.969 297.235C252.957 297.224 252.948 297.212 252.938 297.2C252.689 296.891 252.437 296.585 252.188 296.277L252.188 296.276C252.173 295.329 252.286 294.386 252.511 293.47L252.511 293.469V293.469Z" fill="#233240"/>
<path d="M287.207 271.552C286.119 271.486 285.032 271.413 283.945 271.355C282.303 271.253 280.669 271.158 279.041 271.063C277.757 270.99 276.48 270.924 275.211 270.852V245.371C275.211 244.765 274.722 244.276 274.116 244.276C273.51 244.276 273.022 244.765 273.022 245.371V259.286C270.687 263.175 270.643 267.035 273.022 270.852C261.93 272.165 249.416 272.814 235.873 272.997H235.778C233.83 273.019 231.853 273.033 229.861 273.041C227.664 273.048 225.446 273.041 223.206 273.033C220.835 273.011 218.434 272.989 216.019 272.946C211.568 272.88 207.043 272.771 202.446 272.625C197.083 272.464 191.633 272.26 186.102 272.019C185.518 271.99 184.949 271.968 184.365 271.939H184.358C183.051 271.88 181.738 271.822 180.425 271.756C179.359 271.713 178.287 271.654 177.207 271.603C175.638 271.53 174.069 271.45 172.493 271.37H172.486C171.107 271.297 169.735 271.224 168.356 271.151H168.348C166.561 271.056 164.766 270.954 162.963 270.852C164.277 267.422 164.036 263.489 162.963 259.286V245.371C162.963 244.765 162.482 244.276 161.869 244.276C161.27 244.276 160.774 244.765 160.774 245.371V250.442C158.965 251.041 157.651 252.741 157.651 254.755C157.651 256.769 158.965 258.469 160.774 259.06V271.078C158.965 271.676 157.651 273.376 157.651 275.39C157.651 277.404 158.965 279.104 160.774 279.695V297.587C160.774 298.193 161.27 298.682 161.869 298.682C162.482 298.682 162.963 298.193 162.963 297.587V279.921H273.022V297.587C273.022 298.193 273.511 298.682 274.116 298.682C274.722 298.682 275.211 298.193 275.211 297.587V279.921H288.943V271.661C288.36 271.625 287.783 271.588 287.207 271.552L287.207 271.552Z" fill="#E6E6E6"/>
<path d="M288.94 298.718V299.462H148.799C148.593 299.462 148.427 299.297 148.427 299.09C148.427 298.884 148.593 298.718 148.799 298.718H288.94V298.718Z" fill="#CCCCCC"/>
</g>
<defs>
<clipPath id="clip0_1779_1901">
<rect width="440" height="307.197" fill="white"/>
</clipPath>
</defs>
</svg>
