<svg
      width="600"
      height="400"
      viewBox="0 0 600 400"
      fill="none"
      xmlns="http://www.w3.org/2000/svg">      <g clipPath="url(#clip0_1350_1903)">
        <rect y="-2" width="159" height="302" rx="8" fill="#F2EEFC" />
        <path
          fillRule="evenodd"
          clipRule="evenodd"
          d="M79 281C87.2843 281 94 274.284 94 266C94 257.716 87.2843 251 79 251C70.7157 251 64 257.716 64 266C64 274.284 70.7157 281 79 281Z"
          fill="white"
        />
        <path
          fillRule="evenodd"
          clipRule="evenodd"
          d="M66 18C67.1046 18 68 17.1046 68 16C68 14.8954 67.1046 14 66 14C64.8954 14 64 14.8954 64 16C64 17.1046 64.8954 18 66 18Z"
          fill="white"
        />
        <rect x="73" y="14" width="21" height="4" rx="2" fill="white" />
        <rect x="14" y="26" width="131" height="54" rx="4" fill="white" />
        <g clipPath="url(#clip1_1350_1903)">
          <rect x="53" y="42.2" width="73" height="8.1" rx="3" fill="#D9CCF5" />
          <rect x="53" y="55.7" width="49" height="8.1" rx="3" fill="#D9CCF5" />
        </g>
        <path
          fillRule="evenodd"
          clipRule="evenodd"
          d="M35 65C41.6274 65 47 59.6274 47 53C47 46.3726 41.6274 41 35 41C28.3726 41 23 46.3726 23 53C23 59.6274 28.3726 65 35 65Z"
          fill="#B091F2"
        />
        <rect x="14" y="88" width="131" height="42" rx="4" fill="white" />
        <g clipPath="url(#clip2_1350_1903)">
          <rect
            x="53"
            y="100.6"
            width="73"
            height="6.3"
            rx="3"
            fill="#D9CCF5"
          />
          <rect
            x="53"
            y="111.1"
            width="49"
            height="6.3"
            rx="3"
            fill="#D9CCF5"
          />
        </g>
        <path
          fillRule="evenodd"
          clipRule="evenodd"
          d="M35 121C41.6274 121 47 115.627 47 109C47 102.373 41.6274 97 35 97C28.3726 97 23 102.373 23 109C23 115.627 28.3726 121 35 121Z"
          fill="#B091F2"
        />
        <rect x="14" y="138" width="131" height="42" rx="4" fill="white" />
        <g clipPath="url(#clip3_1350_1903)">
          <rect
            x="53"
            y="150.6"
            width="73"
            height="6.3"
            rx="3"
            fill="#D9CCF5"
          />
          <rect
            x="53"
            y="161.1"
            width="49"
            height="6.3"
            rx="3"
            fill="#D9CCF5"
          />
        </g>
        <path
          fillRule="evenodd"
          clipRule="evenodd"
          d="M35 171C41.6274 171 47 165.627 47 159C47 152.373 41.6274 147 35 147C28.3726 147 23 152.373 23 159C23 165.627 28.3726 171 35 171Z"
          fill="#5524BF"
        />
        <rect x="14" y="188" width="131" height="42" rx="4" fill="white" />
        <g clipPath="url(#clip4_1350_1903)">
          <rect
            x="53"
            y="200.6"
            width="73"
            height="6.3"
            rx="3"
            fill="#D9CCF5"
          />
          <rect
            x="53"
            y="211.1"
            width="49"
            height="6.3"
            rx="3"
            fill="#D9CCF5"
          />
        </g>
        <path
          fillRule="evenodd"
          clipRule="evenodd"
          d="M35 221C41.6274 221 47 215.627 47 209C47 202.373 41.6274 197 35 197C28.3726 197 23 202.373 23 209C23 215.627 28.3726 221 35 221Z"
          fill="#B091F2"
        />
        <rect x="126" y="31" width="159" height="302" rx="8" fill="#D8C8F9" />
        <path
          fillRule="evenodd"
          clipRule="evenodd"
          d="M205 314C213.284 314 220 307.284 220 299C220 290.716 213.284 284 205 284C196.716 284 190 290.716 190 299C190 307.284 196.716 314 205 314Z"
          fill="white"
        />
        <path
          fillRule="evenodd"
          clipRule="evenodd"
          d="M192 51C193.105 51 194 50.1046 194 49C194 47.8954 193.105 47 192 47C190.895 47 190 47.8954 190 49C190 50.1046 190.895 51 192 51Z"
          fill="white"
        />
        <rect x="199" y="47" width="21" height="4" rx="2" fill="white" />
        <rect x="140" y="59" width="131" height="54" rx="4" fill="white" />
        <g clipPath="url(#clip5_1350_1903)">
          <rect
            x="149"
            y="75.2"
            width="73"
            height="8.1"
            rx="3"
            fill="#D8C8F9"
          />
          <rect
            x="149"
            y="88.7"
            width="49"
            height="8.1"
            rx="3"
            fill="#D8C8F9"
          />
        </g>
        <path
          fillRule="evenodd"
          clipRule="evenodd"
          d="M257 93C260.866 93 264 89.866 264 86C264 82.134 260.866 79 257 79C253.134 79 250 82.134 250 86C250 89.866 253.134 93 257 93Z"
          fill="#D8C8F9"
        />
        <path
          fillRule="evenodd"
          clipRule="evenodd"
          d="M257 89C258.657 89 260 87.6569 260 86C260 84.3431 258.657 83 257 83C255.343 83 254 84.3431 254 86C254 87.6569 255.343 89 257 89Z"
          fill="#F2EDFD"
        />
        <rect x="140" y="121" width="131" height="42" rx="4" fill="white" />
        <g clipPath="url(#clip6_1350_1903)">
          <rect
            x="179"
            y="133.6"
            width="73"
            height="6.3"
            rx="3"
            fill="#D8C8F9"
          />
          <rect
            x="179"
            y="144.1"
            width="49"
            height="6.3"
            rx="3"
            fill="#D8C8F9"
          />
        </g>
        <path
          fillRule="evenodd"
          clipRule="evenodd"
          d="M161 154C167.627 154 173 148.627 173 142C173 135.373 167.627 130 161 130C154.373 130 149 135.373 149 142C149 148.627 154.373 154 161 154Z"
          fill="#CAB6F7"
        />
        <rect x="140" y="171" width="131" height="42" rx="4" fill="white" />
        <g clipPath="url(#clip7_1350_1903)">
          <rect
            x="149"
            y="183.6"
            width="73"
            height="6.3"
            rx="3"
            fill="#D8C8F9"
          />
          <rect
            x="149"
            y="194.1"
            width="49"
            height="6.3"
            rx="3"
            fill="#B091F2"
          />
        </g>
        <path
          fillRule="evenodd"
          clipRule="evenodd"
          d="M257 199C260.866 199 264 195.866 264 192C264 188.134 260.866 185 257 185C253.134 185 250 188.134 250 192C250 195.866 253.134 199 257 199Z"
          fill="#D8C8F9"
        />
        <path
          fillRule="evenodd"
          clipRule="evenodd"
          d="M257 195C258.657 195 260 193.657 260 192C260 190.343 258.657 189 257 189C255.343 189 254 190.343 254 192C254 193.657 255.343 195 257 195Z"
          fill="#F2EDFD"
        />
        <rect x="140" y="221" width="131" height="42" rx="4" fill="white" />
        <g clipPath="url(#clip8_1350_1903)">
          <rect
            x="179"
            y="233.6"
            width="73"
            height="6.3"
            rx="3"
            fill="#D8C8F9"
          />
          <rect
            x="179"
            y="244.1"
            width="49"
            height="6.3"
            rx="3"
            fill="#D8C8F9"
          />
        </g>
        <path
          fillRule="evenodd"
          clipRule="evenodd"
          d="M161 254C167.627 254 173 248.627 173 242C173 235.373 167.627 230 161 230C154.373 230 149 235.373 149 242C149 248.627 154.373 254 161 254Z"
          fill="#CAB6F7"
        />
        <rect x="265" y="53" width="335" height="346" rx="8" fill="#F2EEFC" />
        <rect x="514" y="96" width="70" height="81" rx="8" fill="white" />
        <path
          fillRule="evenodd"
          clipRule="evenodd"
          d="M549 143C557.837 143 565 135.837 565 127C565 118.163 557.837 111 549 111C540.163 111 533 118.163 533 127C533 135.837 540.163 143 549 143Z"
          fill="#D9CCF5"
        />
        <rect x="524" y="147" width="50" height="6" rx="3" fill="#D9CCF5" />
        <rect x="532" y="157" width="34" height="6" rx="3" fill="#D9CCF5" />
        <path
          d="M265 61C265 56.5817 268.582 53 273 53H592C596.418 53 600 56.5817 600 61V80H265V61Z"
          fill="#5524BF"
        />
        <path
          fillRule="evenodd"
          clipRule="evenodd"
          d="M278 71C280.209 71 282 69.2091 282 67C282 64.7909 280.209 63 278 63C275.791 63 274 64.7909 274 67C274 69.2091 275.791 71 278 71Z"
          fill="#F2EEFC"
        />
        <path
          fillRule="evenodd"
          clipRule="evenodd"
          d="M290 71C292.209 71 294 69.2091 294 67C294 64.7909 292.209 63 290 63C287.791 63 286 64.7909 286 67C286 69.2091 287.791 71 290 71Z"
          fill="#F2EEFC"
        />
        <path
          fillRule="evenodd"
          clipRule="evenodd"
          d="M302 71C304.209 71 306 69.2091 306 67C306 64.7909 304.209 63 302 63C299.791 63 298 64.7909 298 67C298 69.2091 299.791 71 302 71Z"
          fill="#F2EEFC"
        />
        <rect x="514" y="185" width="70" height="194" rx="8" fill="white" />
        <rect x="532" y="203" width="34" height="26" rx="4" fill="#D9CCF5" />
        <rect x="532" y="237" width="34" height="25" rx="4" fill="#B091F2" />
        <rect x="532" y="270" width="34" height="25" rx="4" fill="#D9CCF5" />
        <rect x="532" y="336" width="34" height="25" rx="4" fill="#D9CCF5" />
        <rect x="532" y="303" width="34" height="25" rx="4" fill="#5524BF" />
        <rect x="281" y="97" width="225" height="47" rx="4" fill="white" />
        <g clipPath="url(#clip9_1350_1903)">
          <rect
            x="290"
            y="111.1"
            width="167"
            height="7.05"
            rx="3"
            fill="#D9CCF5"
          />
          <rect
            x="290"
            y="122.85"
            width="112.096"
            height="7.05"
            rx="3"
            fill="#D9CCF5"
          />
        </g>
        <path
          fillRule="evenodd"
          clipRule="evenodd"
          d="M481.954 127.5C485.82 127.5 488.954 124.366 488.954 120.5C488.954 116.634 485.82 113.5 481.954 113.5C478.088 113.5 474.954 116.634 474.954 120.5C474.954 124.366 478.088 127.5 481.954 127.5Z"
          fill="#D9CCF5"
        />
        <path
          fillRule="evenodd"
          clipRule="evenodd"
          d="M481.954 123.5C483.611 123.5 484.954 122.157 484.954 120.5C484.954 118.843 483.611 117.5 481.954 117.5C480.297 117.5 478.954 118.843 478.954 120.5C478.954 122.157 480.297 123.5 481.954 123.5Z"
          fill="#F2EEFC"
        />
        <rect x="281" y="152" width="225" height="39" rx="4" fill="white" />
        <g clipPath="url(#clip10_1350_1903)">
          <rect
            x="290"
            y="163.7"
            width="167"
            height="5.85"
            rx="2.925"
            fill="#D9CCF5"
          />
          <rect
            x="290"
            y="173.45"
            width="112.096"
            height="5.85"
            rx="2.925"
            fill="#D9CCF5"
          />
        </g>
        <path
          fillRule="evenodd"
          clipRule="evenodd"
          d="M481.954 178.5C485.82 178.5 488.954 175.366 488.954 171.5C488.954 167.634 485.82 164.5 481.954 164.5C478.088 164.5 474.954 167.634 474.954 171.5C474.954 175.366 478.088 178.5 481.954 178.5Z"
          fill="#D9CCF5"
        />
        <path
          fillRule="evenodd"
          clipRule="evenodd"
          d="M481.954 174.5C483.611 174.5 484.954 173.157 484.954 171.5C484.954 169.843 483.611 168.5 481.954 168.5C480.297 168.5 478.954 169.843 478.954 171.5C478.954 173.157 480.297 174.5 481.954 174.5Z"
          fill="#F2EEFC"
        />
        <rect x="281" y="199" width="225" height="39" rx="4" fill="white" />
        <g clipPath="url(#clip11_1350_1903)">
          <rect
            x="290"
            y="210.7"
            width="167"
            height="5.85"
            rx="2.925"
            fill="#D9CCF5"
          />
          <rect
            x="290"
            y="220.45"
            width="112.096"
            height="5.85"
            rx="2.925"
            fill="#D9CCF5"
          />
        </g>
        <path
          fillRule="evenodd"
          clipRule="evenodd"
          d="M481.954 225.5C485.82 225.5 488.954 222.366 488.954 218.5C488.954 214.634 485.82 211.5 481.954 211.5C478.088 211.5 474.954 214.634 474.954 218.5C474.954 222.366 478.088 225.5 481.954 225.5Z"
          fill="#D9CCF5"
        />
        <path
          fillRule="evenodd"
          clipRule="evenodd"
          d="M481.954 221.5C483.611 221.5 484.954 220.157 484.954 218.5C484.954 216.843 483.611 215.5 481.954 215.5C480.297 215.5 478.954 216.843 478.954 218.5C478.954 220.157 480.297 221.5 481.954 221.5Z"
          fill="#B091F2"
        />
        <rect x="281" y="340" width="225" height="39" rx="4" fill="white" />
        <g clipPath="url(#clip12_1350_1903)">
          <rect
            x="290"
            y="351.7"
            width="167"
            height="5.85"
            rx="2.925"
            fill="#D9CCF5"
          />
          <rect
            x="290"
            y="361.45"
            width="112.096"
            height="5.85"
            rx="2.925"
            fill="#D9CCF5"
          />
        </g>
        <path
          fillRule="evenodd"
          clipRule="evenodd"
          d="M481.954 366.5C485.82 366.5 488.954 363.366 488.954 359.5C488.954 355.634 485.82 352.5 481.954 352.5C478.088 352.5 474.954 355.634 474.954 359.5C474.954 363.366 478.088 366.5 481.954 366.5Z"
          fill="#D9CCF5"
        />
        <path
          fillRule="evenodd"
          clipRule="evenodd"
          d="M481.954 362.5C483.611 362.5 484.954 361.157 484.954 359.5C484.954 357.843 483.611 356.5 481.954 356.5C480.297 356.5 478.954 357.843 478.954 359.5C478.954 361.157 480.297 362.5 481.954 362.5Z"
          fill="#F2EEFC"
        />
        <rect x="281" y="293" width="225" height="39" rx="4" fill="white" />
        <g clipPath="url(#clip13_1350_1903)">
          <rect
            x="290"
            y="304.7"
            width="167"
            height="5.85"
            rx="2.925"
            fill="#D9CCF5"
          />
          <rect
            x="290"
            y="314.45"
            width="112.096"
            height="5.85"
            rx="2.925"
            fill="#D9CCF5"
          />
        </g>
        <path
          fillRule="evenodd"
          clipRule="evenodd"
          d="M481.954 319.5C485.82 319.5 488.954 316.366 488.954 312.5C488.954 308.634 485.82 305.5 481.954 305.5C478.088 305.5 474.954 308.634 474.954 312.5C474.954 316.366 478.088 319.5 481.954 319.5Z"
          fill="#D9CCF5"
        />
        <path
          fillRule="evenodd"
          clipRule="evenodd"
          d="M481.954 315.5C483.611 315.5 484.954 314.157 484.954 312.5C484.954 310.843 483.611 309.5 481.954 309.5C480.297 309.5 478.954 310.843 478.954 312.5C478.954 314.157 480.297 315.5 481.954 315.5Z"
          fill="#F2EEFC"
        />
        <rect x="281" y="246" width="225" height="39" rx="4" fill="white" />
        <g clipPath="url(#clip14_1350_1903)">
          <rect
            x="290"
            y="257.7"
            width="167"
            height="5.85"
            rx="2.925"
            fill="#D9CCF5"
          />
          <rect
            x="290"
            y="267.45"
            width="112.096"
            height="5.85"
            rx="2.925"
            fill="#D9CCF5"
          />
        </g>
        <path
          fillRule="evenodd"
          clipRule="evenodd"
          d="M481.954 272.5C485.82 272.5 488.954 269.366 488.954 265.5C488.954 261.634 485.82 258.5 481.954 258.5C478.088 258.5 474.954 261.634 474.954 265.5C474.954 269.366 478.088 272.5 481.954 272.5Z"
          fill="#D9CCF5"
        />
        <path
          fillRule="evenodd"
          clipRule="evenodd"
          d="M481.954 268.5C483.611 268.5 484.954 267.157 484.954 265.5C484.954 263.843 483.611 262.5 481.954 262.5C480.297 262.5 478.954 263.843 478.954 265.5C478.954 267.157 480.297 268.5 481.954 268.5Z"
          fill="#F2EEFC"
        />
      </g>
      <defs>
        <clipPath id="clip0_1350_1903">
          <rect width="600" height="400" fill="white" />
        </clipPath>
        <clipPath id="clip1_1350_1903">
          <rect
            width="73"
            height="21.6"
            fill="white"
            transform="translate(53 42.2)"
          />
        </clipPath>
        <clipPath id="clip2_1350_1903">
          <rect
            width="73"
            height="16.8"
            fill="white"
            transform="translate(53 100.6)"
          />
        </clipPath>
        <clipPath id="clip3_1350_1903">
          <rect
            width="73"
            height="16.8"
            fill="white"
            transform="translate(53 150.6)"
          />
        </clipPath>
        <clipPath id="clip4_1350_1903">
          <rect
            width="73"
            height="16.8"
            fill="white"
            transform="translate(53 200.6)"
          />
        </clipPath>
        <clipPath id="clip5_1350_1903">
          <rect
            width="73"
            height="21.6"
            fill="white"
            transform="translate(149 75.2)"
          />
        </clipPath>
        <clipPath id="clip6_1350_1903">
          <rect
            width="73"
            height="16.8"
            fill="white"
            transform="translate(179 133.6)"
          />
        </clipPath>
        <clipPath id="clip7_1350_1903">
          <rect
            width="73"
            height="16.8"
            fill="white"
            transform="translate(149 183.6)"
          />
        </clipPath>
        <clipPath id="clip8_1350_1903">
          <rect
            width="73"
            height="16.8"
            fill="white"
            transform="translate(179 233.6)"
          />
        </clipPath>
        <clipPath id="clip9_1350_1903">
          <rect
            width="167"
            height="18.8"
            fill="white"
            transform="translate(290 111.1)"
          />
        </clipPath>
        <clipPath id="clip10_1350_1903">
          <rect
            width="167"
            height="15.6"
            fill="white"
            transform="translate(290 163.7)"
          />
        </clipPath>
        <clipPath id="clip11_1350_1903">
          <rect
            width="167"
            height="15.6"
            fill="white"
            transform="translate(290 210.7)"
          />
        </clipPath>
        <clipPath id="clip12_1350_1903">
          <rect
            width="167"
            height="15.6"
            fill="white"
            transform="translate(290 351.7)"
          />
        </clipPath>
        <clipPath id="clip13_1350_1903">
          <rect
            width="167"
            height="15.6"
            fill="white"
            transform="translate(290 304.7)"
          />
        </clipPath>
        <clipPath id="clip14_1350_1903">
          <rect
            width="167"
            height="15.6"
            fill="white"
            transform="translate(290 257.7)"
          />
        </clipPath>
      </defs>
    </svg>
