<svg width="1594" height="1388" viewBox="0 0 1594 1388" fill="none" xmlns="http://www.w3.org/2000/svg">
<g clip-path="url(#clip0_1770_2708)">
<path fill-rule="evenodd" clip-rule="evenodd" d="M1549.29 1103.72C1505.3 1115.69 1473.76 1196.05 1455.91 1231.54C1420.61 1301.74 1389.77 1373.16 1358.05 1444.24C1326.32 1515.33 1294.77 1586.53 1257.68 1656.14C1233.61 1701.34 1206.97 1754 1165.34 1791.44C1076.61 1871.19 1047.74 1702.43 1034.06 1660.37C999.244 1553.4 968.512 1428.23 887.762 1340.84C839.557 1288.68 779.511 1278.82 704.946 1312.77C680.686 1323.78 654.807 1344.05 627.252 1340.14C597.822 1335.96 575.642 1314.15 559.663 1295.4C501.421 1226.99 472.957 1138.02 446.06 1056.34C416.961 968.28 394.275 877.605 370.083 788.911C359.827 751.302 332.763 716.406 309.724 684.148C279.524 641.858 247.303 600.707 215.692 559.213C146.248 467.899 73.7339 374.064 34.0022 268.414C9.11754 202.252 -1.75517 125.567 42.1795 57.2177C64.2392 22.9003 103.873 -2.58727 138.277 -28.228C179.829 -59.2419 222.027 -89.6406 262.526 -121.656C392.958 -224.783 512.735 -354.217 480.479 -503.567C475.596 -526.159 466.17 -547.107 459.556 -569.123C455.357 -583.148 456.16 -596.845 472.819 -606.941C514.595 -632.293 597.256 -609.94 637.772 -602.549C726.461 -586.361 812.894 -564.467 900.567 -545.755C958.551 -533.369 1040.33 -506.951 1102.43 -523.083C1157.76 -537.458 1181.56 -608.263 1199.99 -648.275C1217.23 -685.763 1237.98 -750.872 1288.88 -768.114C1313.56 -776.473 1338.01 -768.494 1357.95 -758.667C1392.85 -741.425 1420.44 -718.18 1458.65 -704.495C1521.34 -682.061 1602.29 -670.975 1672.21 -695.038C1720.66 -711.714 1746.81 -743.434 1769.86 -781.047C1779.55 -796.856 1786.07 -809.324 1806.99 -815.628C1840.21 -825.656 1878.54 -824.415 1911.97 -823.89C2031.62 -822.023 2151.15 -805.867 2264.92 -782.747C2321.77 -771.196 2379.01 -757.596 2430.67 -735.926C2464.58 -721.753 2505.86 -701.445 2514.69 -668.331C2524.96 -630.005 2518.93 -584.923 2516.27 -544.283C2511.3 -468.376 2502.42 -392.322 2492.76 -316.351C2470.39 -140.654 2442.38 34.96 2408.72 210.492C2384.92 334.156 2361.66 460.163 2318.61 581.97C2310.11 605.75 2299.02 629.022 2285.47 651.47C2271.32 675.365 2268.98 700.941 2268.91 726.257C2268.47 883.388 2341.95 1035.72 2400.47 1177.7C2415.32 1213.74 2430.19 1249.78 2443.61 1286.31C2455.15 1317.72 2473.84 1354.02 2469.66 1388.67C2461.46 1456.94 2355.92 1427.46 2312.69 1414.62C2160.49 1369.43 2022.17 1295.57 1883.57 1229.89C1817.59 1198.69 1751.65 1167.1 1683.29 1139.19C1647.74 1124.65 1587.85 1093.23 1549.29 1103.72Z" stroke="#5BE7C3" stroke-width="5"/>
<path fill-rule="evenodd" clip-rule="evenodd" d="M1534.46 1078.07C1494.45 1115.14 1471.58 1167.5 1448.76 1212C1415.91 1276.03 1386.09 1340.98 1354.78 1405.48C1325.18 1466.46 1295.11 1527.69 1258.71 1586.57C1236.52 1622.48 1210.41 1667.06 1170.05 1692.07C1082.57 1746.29 1055.61 1587.92 1042.9 1550.44C1011.33 1457.27 981.115 1350.14 907.501 1275.84C861.531 1229.45 803.609 1220.84 734.696 1251.83C710.852 1262.55 691.522 1275.53 664.256 1272.96C632.702 1270 608.244 1250.29 589.596 1231.21C531.171 1171.45 500.478 1090.53 473.046 1016.13C444.706 939.269 417.612 858.535 402.465 780.854C396.398 749.793 375.043 717.892 357.792 690.166C331.23 647.51 302.625 605.908 275.098 563.758C219.131 478.102 163.64 389.704 134.087 292.913C112.749 223.035 106.264 145.953 141.637 73.581C177.518 0.228038 250.77 -47.6792 318.289 -101.118C435.037 -193.445 574.928 -313.377 567.511 -452.619C566.393 -473.734 558.95 -492.321 554.642 -512.56C552.418 -522.964 550.956 -535.095 561.921 -543.612C590.388 -565.724 658.979 -544.416 686.897 -538.541C764.046 -522.311 839.017 -500.91 915.299 -482.678C975.871 -468.194 1044.38 -447.619 1110.05 -453.335C1189.74 -460.272 1220.33 -562.663 1265.62 -607.925C1344.16 -686.397 1424.29 -599.068 1482 -560.889C1548.25 -517.044 1653.73 -494.464 1718.61 -567.065C1743.41 -594.834 1754.85 -623.888 1791.75 -643.211C1849.46 -673.43 1922.42 -681.82 1986.11 -686.916C2081.87 -694.539 2179.26 -692.096 2271.42 -677.996C2337.41 -667.883 2441.52 -649.668 2451.46 -584.805C2458.19 -541.152 2452.81 -493.499 2448.91 -448.192C2443.08 -380.355 2433.91 -312.458 2423.67 -244.622C2400.19 -88.0736 2370.03 68.6067 2332.42 224.365C2306.74 330.648 2169.55 644.678 2167.4 666.118C2161 730.038 2182.55 794.992 2201.98 853.918C2227.83 932.304 2260.76 1008.36 2292.8 1084.59C2308.03 1120.89 2324.45 1157.06 2337.13 1194.25C2346.15 1220.73 2357.17 1255.71 2344.36 1284.45C2319.37 1340.53 2220.18 1312.08 2178.35 1300.54C2050.12 1265.18 1932.12 1208.62 1813.33 1157.76C1755.02 1132.81 1696.63 1107.26 1635.39 1086.83C1610.66 1078.6 1559.16 1055.16 1534.46 1078.07Z" stroke="#5ACEF2" stroke-width="5"/>
<path fill-rule="evenodd" clip-rule="evenodd" d="M1501.45 1050.46C1426.2 1142.59 1381.7 1253.84 1325.26 1354.69C1296.92 1405.31 1267.59 1456.47 1230.3 1503.57C1210.91 1528.07 1186.32 1558.77 1153.5 1571.28C1065.69 1604.75 1040.58 1462.22 1025.99 1421.46C997.743 1342.66 968.305 1252.97 902.637 1192.21C862.501 1155.09 810.375 1145.48 751.846 1170.11C725.877 1181.04 704.516 1192.94 675.507 1190.57C646.118 1188.17 621.841 1173.26 602.233 1156.83C545.855 1109.63 513.452 1040.88 486.195 978.027C454.301 904.276 429.152 828.1 410.952 750.112C394.978 681.816 352.514 620.967 318.712 559.162C273.944 477.282 231.446 393.092 210.242 302.711C193.51 231.328 191.944 155.284 222.373 82.2741C253.4 8.05607 314.595 -47.9648 382.388 -101.854C484.871 -183.319 623.471 -287.758 637.902 -410.102C640.013 -427.899 636.704 -443.071 633.378 -459.952C631.759 -468.151 629.14 -478.594 638.328 -485.339C660.454 -501.568 717.862 -478.87 737.209 -473.427C798.97 -456.055 859.043 -435.379 920.309 -417.028C977.506 -399.898 1037.49 -380.619 1100.05 -377.22C1199.68 -371.83 1227.6 -481.886 1315.6 -502.594C1370.24 -515.443 1420.49 -483.367 1456.39 -456.923C1500.55 -424.354 1538.27 -370.529 1604.16 -365.959C1653.23 -362.553 1672.89 -393.797 1701.99 -421.597C1751.29 -468.706 1829.02 -491.846 1896.78 -506.475C1988.34 -526.252 2084.7 -533.487 2175.67 -526.23C2216.91 -522.945 2260.47 -517.059 2296.18 -500.775C2329.65 -485.523 2342.4 -466.018 2344.88 -434.317C2352.45 -337.262 2329.5 -231.075 2310.43 -130.95C2286.45 -5.14727 2256.47 120.62 2218.17 245.099C2192.05 329.981 2163.73 417.213 2117.83 497.872C2105.87 518.895 2092.58 540.7 2074.18 558.659C2060.36 572.211 2047.96 579.713 2042.82 597.692C2027.58 650.978 2051.89 712.904 2067.94 761.324C2093.57 838.752 2126.67 913.772 2158.54 989.011C2177.19 1032.9 2220.4 1113.42 2181.72 1162.82C2148.32 1205.47 2066.83 1186.64 2024.8 1177.13C1918.48 1153.08 1819.8 1111.94 1719.91 1076C1674.14 1059.53 1627.78 1042.09 1578.94 1031.44C1566.49 1028.71 1549.56 1023.53 1535.86 1025.54C1520.16 1027.87 1510.73 1039.13 1501.45 1050.46Z" stroke="#5BE7C3" stroke-width="5"/>
<path fill-rule="evenodd" clip-rule="evenodd" d="M1521.61 1038.87C1455.79 1123 1408.1 1215.9 1348.8 1303.18C1322.22 1342.31 1294.01 1382.2 1257.92 1416.26C1238.51 1434.58 1213.43 1455.23 1184.32 1459.41C1100.78 1471.42 1077.4 1354.93 1060.26 1309.92C1034.87 1243.04 1006.69 1165.93 946.758 1116.83C907.499 1084.66 861.277 1081.04 808.817 1103.07C752.546 1126.7 705.364 1120.22 661.898 1088.33C607.434 1048.35 573.573 988.535 545.91 932.58C512.651 865.148 487.04 794.698 469.39 722.091C452.232 651.476 419.65 587.337 391.63 520.128C354.491 431.017 322.827 337.259 323.704 239.077C324.471 153.593 353.884 68.6845 414.715 -5.35781C478.194 -82.6792 569.702 -137.056 644.366 -206.036C690.938 -249.06 751.997 -308.015 758.8 -366.915C761.069 -386.56 742.913 -416.388 781.29 -411.467C803.236 -408.657 824.648 -398.13 844.024 -390.472C875.335 -378.101 906.099 -364.895 937.139 -352.1C1003.3 -324.834 1071.43 -294.905 1144.89 -280.864C1237.38 -263.155 1284.6 -338.972 1369.54 -354.033C1415.25 -362.144 1457.72 -346.269 1492.94 -326.874C1515.74 -314.331 1536.56 -299.496 1556.43 -283.98C1577.19 -267.777 1595.29 -246.874 1619.84 -234.47C1654.78 -216.781 1685.19 -236.676 1720.35 -251.168C1782.13 -276.65 1846.67 -295.904 1912.5 -308.491C1993.17 -323.933 2078.19 -332.229 2157.73 -323.031C2188.7 -319.459 2222.13 -313.383 2246.49 -297.581C2270.84 -281.778 2275.33 -259.886 2276.07 -234.499C2278.34 -159.218 2258.41 -78.1451 2239.57 -1.10761C2215.98 95.3151 2186.53 191.54 2148.99 285.952C2123.07 351.124 2093.95 417.345 2051.26 477.5C2038.83 494.999 2025.1 512.158 2008.73 527.443C1997.51 537.934 1981.61 546.205 1974.48 558.959C1952.24 598.845 1978.45 659.936 1990.18 696.58C2013.59 769.713 2050.05 838.098 2073.99 910.988C2087.06 950.768 2109.66 1012.5 2075.6 1053.41C2043.59 1091.88 1974.63 1083.28 1932.12 1076.81C1848.54 1064.09 1770.1 1037.94 1690 1017.12C1657.04 1008.58 1622.34 998.825 1586.85 997.074C1555.23 995.537 1538.48 1017.3 1521.61 1038.87Z" stroke="#5ACEF2" stroke-width="5"/>
<path fill-rule="evenodd" clip-rule="evenodd" d="M1518.86 1023.25C1459.56 1092.07 1411.11 1168.86 1350.72 1238.36C1315.35 1279.04 1256.2 1348.63 1189.3 1342.43C1115.8 1335.64 1090.91 1250.02 1072.18 1201.69C1049.89 1144.17 1022.49 1076.94 967.14 1037.43C949.641 1024.93 928.506 1015.96 903.938 1016.33C877.642 1016.74 857.904 1029.29 833.481 1036.78C782.245 1052.49 733.94 1038.34 696.454 1012.52C643.458 976.042 608.55 922.024 580.293 869.736C548.347 810.48 523.72 748.137 506.766 683.6C490.517 621.934 472.519 561.436 454.073 500.293C429.901 420.344 412.134 337.462 417.336 252.233C422.478 168.269 452.038 85.264 508.385 11.1859C563.373 -61.0865 638.463 -120.027 716.335 -174.894C760.536 -206.029 825.648 -256.069 838.906 -305.639C844.812 -327.684 839.034 -346.217 873.137 -333.596C916.078 -317.701 954.268 -291.005 993.071 -269.666C1049.06 -238.888 1106.21 -207.272 1168.78 -185.611C1208.74 -171.777 1244.29 -170.368 1287.66 -183.677C1320.69 -193.835 1352.22 -208.207 1386.46 -214.385C1466.81 -228.899 1534.29 -192.662 1596.49 -161.306C1636.49 -141.133 1668.16 -121.408 1718.06 -118.875C1777.03 -115.869 1838.05 -124.324 1897.54 -127.697C1962.87 -131.395 2031.23 -133.763 2093.27 -120.249C2148.5 -108.221 2178.41 -83.6107 2177.55 -34.5459C2176.21 41.9772 2144.79 125.471 2115.26 201.001C2085.23 277.871 2049.02 355.214 1998.35 425.824C1970.98 463.947 1935.06 494.587 1904.23 530.193C1865.53 574.956 1902.9 642.755 1918.46 684.827C1944.3 754.667 2054.41 966.701 1887.77 989.065C1818.22 998.4 1747.01 980.843 1680.99 971.742C1653.59 967.979 1620.02 960.901 1591.18 966.118C1559.77 971.798 1536.72 1002.55 1518.86 1023.25Z" stroke="#FF8062" stroke-width="5"/>
<path fill-rule="evenodd" clip-rule="evenodd" d="M1518.04 995.521C1462.41 1050.88 1412.41 1112.68 1350.09 1164.09C1309.73 1197.42 1253.82 1234.51 1197.91 1220.45C1134.81 1204.57 1103.94 1140.56 1083.67 1092.87C1062.78 1043.74 1040.39 984.414 987.581 953.837C970.764 944.113 949.949 937.96 927.991 941.659C906.926 945.199 887.873 956.248 866.469 960.013C818.409 968.477 773.473 955.537 737.36 933.004C630.525 866.355 576.614 738.996 545.706 632.323C530.243 578.927 521.1 522.16 510.679 467.042C497.155 395.519 489.637 322.275 498.947 248.112C518.721 90.4376 621.531 -39.242 763.402 -148.586C808.059 -183 858.154 -213.603 889.756 -257.252C906.082 -279.763 922.053 -280.079 945.713 -267.877C982.69 -248.796 1014.25 -221.892 1047.11 -198.521C1093.84 -165.278 1141.34 -131.263 1193.73 -104.829C1229.84 -86.6085 1262.87 -75.6548 1308.07 -81.7543C1340.29 -86.1003 1371.79 -95.5414 1403.78 -101.536C1464.56 -112.912 1527.86 -113.066 1584.7 -98.5405C1629.76 -86.9734 1672.38 -70.2486 1713.58 -52.1978C1767.21 -28.7513 1820.08 -10.935 1879.68 1.81268C1958.6 18.7418 2099.98 34.3559 2088.53 127.106C2075.87 229.408 2004.07 341.357 1927.91 425.225C1902.34 453.388 1868.82 479.865 1853.22 512.786C1829.92 562.057 1842.03 602.471 1854.96 650.183C1874.31 721.62 1934.95 872.101 1804.57 908.838C1752.91 923.389 1698.98 918.161 1646.77 922.729C1588.27 927.775 1555.93 957.74 1518.04 995.521Z" stroke="#F1B170" stroke-width="5"/>
<path fill-rule="evenodd" clip-rule="evenodd" d="M1516.37 965.841C1440.69 1026.13 1322.34 1147.56 1210 1109.42C1150.64 1089.28 1115.78 1034.87 1091.14 987.989C1071.26 950.276 1054.86 902.766 1008.06 882.784C973.66 868.1 934.943 889.085 897.069 890.075C850.113 891.292 807.493 876.624 772.348 853.983C674.126 790.718 619.717 680.738 587.824 581.52C554.713 478.472 547.884 356.982 567.721 246.347C592.476 108.396 676.918 -12.6108 797.797 -113.801C820.112 -132.476 843.385 -150.246 866.135 -168.529C881.392 -180.807 895.097 -196.622 911.686 -207.521C939.35 -225.68 967.325 -220.514 992.18 -206.876C1027.96 -187.266 1057.19 -159.234 1086.88 -133.905C1127.51 -99.2727 1167.87 -63.5536 1212.77 -33.2426C1242.97 -12.8824 1275.29 8.24019 1317.89 7.00642C1346.96 6.16955 1376.26 -0.239593 1404.49 -8.05331C1465.03 -24.8158 1514.8 -35.3568 1576.58 -27.0627C1678.03 -13.3584 1775.79 23.3251 1860.65 67.0106C1927.25 101.295 2031.09 155.96 2014.26 236.422C1999.23 308.598 1932.43 366.36 1881.6 424.881C1856.88 453.332 1835.46 483.595 1821.2 516.229C1803.23 557.371 1800.43 592.32 1806.76 633.663C1817.42 703.247 1842.79 805.678 1749.35 853.106C1714.87 870.613 1675.84 876.353 1639.9 890.319C1592.37 908.721 1554.54 935.428 1516.37 965.841Z" stroke="#5BE7C3" stroke-width="5"/>
<path fill-rule="evenodd" clip-rule="evenodd" d="M1509.14 926.174C1422.51 977.876 1313.72 1044.46 1213.2 1002.58C1164.5 982.294 1130.22 944.596 1102.01 906.778C1081.81 879.695 1065.35 832.503 1023.21 823.868C992.215 817.541 953.991 825.756 921.389 821.254C876.568 815.073 836.507 798.25 802.458 775.044C713.737 714.594 660.166 619.251 627.67 527.919C557.082 329.464 631.173 88.438 814.965 -77.1254C869.748 -126.486 926.092 -186.352 1004.93 -151.43C1090.95 -113.286 1147.13 -36.1575 1215.64 18.5194C1241.8 39.4148 1273.76 66.4129 1312.39 71.6301C1335.61 74.7733 1361.97 68.3522 1385.06 62.5918C1443.89 47.9544 1497.61 37.8267 1557.4 42.461C1649.8 49.6044 1740.41 76.1963 1818.62 112.886C1886.82 144.884 1970.12 194.258 1948.27 273.125C1931.44 333.614 1874.9 384.268 1837.55 437.771C1795.95 497.324 1774.73 562.874 1773.48 628.948C1772.31 693.212 1778.27 761.754 1713.81 812.731C1691.69 830.217 1662.34 850.161 1635.75 861.62C1591.87 880.374 1549.52 901.964 1509.14 926.174Z" stroke="#FF8062" stroke-width="5"/>
<path fill-rule="evenodd" clip-rule="evenodd" d="M1498.2 882.716C1406.83 920.379 1308.49 948.195 1218.57 911.049C1176.62 893.709 1142.86 866.627 1111.32 838.543C1088.11 817.882 1067.27 795.709 1035.22 784.22C1005.55 773.572 972.957 768.166 942.788 758.292C902.836 745.31 866.292 726.759 834.56 703.352C755.129 644.65 703.007 561.316 670.093 477.048C654.141 436.26 639.481 391.306 641.067 346.123C642.586 302.49 651.391 257.39 664.18 214.218C691.321 122.454 743.695 35.1938 819.787 -38.2782C871.983 -88.663 926.663 -122.995 1000.63 -95.6793C1084 -64.88 1143.51 2.49651 1206.16 54.382C1249.14 89.9682 1292.92 131.027 1361.42 121.471C1415.93 113.872 1467.43 105.763 1521.83 109.313C1602.13 114.774 1678.68 133.928 1746.93 165.64C1809.16 194.694 1866.72 237.119 1855.94 305.414C1847.37 359.534 1809.18 409.973 1786.01 461.457C1760.11 518.856 1752.73 576.271 1750.25 635.314C1747.96 688.391 1736.63 740.826 1694.84 785.932C1686.31 795.159 1676.95 804.956 1666.79 813.028C1653.84 823.327 1639.17 826.727 1623.07 832.381C1580.57 847.261 1539.56 865.675 1498.2 882.716Z" stroke="#F1B170" stroke-width="5"/>
<path fill-rule="evenodd" clip-rule="evenodd" d="M1477.68 837.067C1387.48 860.109 1297.75 865.177 1214.69 835.468C1179.16 822.772 1147.83 804.636 1114.25 789.188C1087.19 776.757 1061.96 764.914 1038.05 748.687C981.422 710.172 914.598 684.444 861.856 641.52C791.375 584.241 741.13 510.459 708.119 432.735C691.996 394.784 679.137 354.562 674.721 312.978C670.927 277.264 681.049 239.374 692.246 203.742C714.168 133.909 752.526 61.5304 810.316 4.51769C937.722 -121.178 1092.12 17.9641 1179.28 87.2611C1219.37 119.128 1269.74 170.739 1332.41 171.4C1377.18 171.88 1421.44 167.62 1465.83 171.796C1585.03 183.017 1734.44 230.599 1746.65 344.084C1751.89 392.643 1733.81 443.024 1725.69 491.839C1717.33 542.106 1718.37 591.396 1718.38 641.308C1718.41 687.953 1711.14 727.082 1674.27 767.095C1656.66 786.214 1630.96 791.829 1605.26 799.998C1563.05 813.403 1520.4 826.127 1477.68 837.067Z" stroke="#5BE7C3" stroke-width="5"/>
<path fill-rule="evenodd" clip-rule="evenodd" d="M1454.52 796.698C1314.1 815.563 1148.52 790.266 1044.09 715.812C921.244 628.232 810.533 527.358 752.096 399.051C725.002 339.564 701.603 272.718 719.891 204.837C733.792 153.18 758.565 90.8656 806.383 51.6745C923.34 -44.2012 1065.18 61.3419 1147.2 121.149C1191.35 153.349 1237.67 196.988 1294.37 214.982C1327.25 225.426 1366.83 224.649 1401.54 230.894C1506.73 249.818 1601.46 301.981 1639.09 388.496C1656.48 428.499 1660.02 472.539 1664.98 515.535C1670.06 559.546 1678.15 603.317 1680.68 647.73C1682.7 683.183 1681.48 725.928 1640.9 750.061C1589.75 780.482 1511.86 788.988 1454.52 796.698Z" stroke="#5ACEF2" stroke-width="5"/>
<path fill-rule="evenodd" clip-rule="evenodd" d="M1421.3 759.928C1286.85 768.594 1147.9 747.895 1047.38 677.444C994.076 640.082 951.204 591.619 909.265 545.298C861.731 492.791 820.453 435.684 791.025 373.946C754.378 297.078 705.78 169.703 807.032 97.2822C907.535 25.4007 1034.83 104.885 1107.98 152.458C1154.85 182.966 1199.51 217.092 1249.27 244.908C1276.24 259.992 1305.26 269.405 1335.08 280.297C1417.66 310.355 1491.31 365.018 1539.66 427.894C1586.52 488.832 1621.86 570.282 1631.84 645.187C1636.16 677.503 1628.49 703.484 1592.21 723.33C1541.76 750.876 1476.83 756.355 1421.3 759.928Z" stroke="#F1B170" stroke-width="5"/>
<path fill-rule="evenodd" clip-rule="evenodd" d="M1375.58 726.794C1256.44 731.542 1139.17 704.345 1050.36 642.637C950.811 573.466 877.954 469.571 828.236 369.458C801.817 316.241 738.391 202.572 818.742 150.309C899.094 98.0456 1008.06 157.694 1068.6 192.607C1142 235.005 1214.6 282.462 1283.24 330.906C1342.91 372.986 1404.56 418.428 1455.15 467.768C1483.79 495.565 1509.18 525.715 1531.01 557.86C1547.1 581.683 1569.55 611.442 1570.18 640.768C1571.76 714.742 1432.55 724.527 1375.58 726.794Z" stroke="#FF8062" stroke-width="5"/>
<path fill-rule="evenodd" clip-rule="evenodd" d="M1327.93 683.543C1100.56 684.837 948.836 536.567 866.938 376.608C847.916 339.435 787.81 237.046 846.807 197.611C904.011 159.388 996.842 207.329 1040.72 229.662C1176.69 298.863 1290.56 398.864 1401.95 492.686C1436.72 521.971 1508.64 572.321 1495.46 623.735C1481.11 679.572 1375.08 683.264 1327.93 683.543Z" stroke="#5ACEF2" stroke-width="5"/>
<path fill-rule="evenodd" clip-rule="evenodd" d="M1271.77 637.512C1102.34 631.053 974.895 514.372 910.644 392.915C894.914 363.165 850.811 288.719 888.042 253.018C922.481 219.983 995.209 257.308 1023.78 270.908C1087.4 301.182 1144.08 342.073 1198.93 382.775C1249.68 420.403 1301.51 458.293 1347.07 499.985C1371.06 521.947 1420.41 561.969 1402.4 599.057C1383.02 638.981 1309.39 638.945 1271.77 637.512Z" stroke="#5ACEF2" stroke-width="5"/>
<path fill-rule="evenodd" clip-rule="evenodd" d="M1209.23 586.962C1097.17 577.464 1004.36 496.477 958.963 415.261C946.762 393.404 917.827 346.851 939.816 319.763C960.068 294.823 1004.77 314.294 1025.28 322.758C1116.16 360.267 1206.17 426.738 1268.3 493.093C1283.91 509.776 1313.71 539.307 1298.08 564.962C1282.03 591.284 1234.96 589.147 1209.23 586.962Z" stroke="#5BE7C3" stroke-width="5"/>
<path fill-rule="evenodd" clip-rule="evenodd" d="M1148.46 531.844C1092.15 524.659 1039.32 480.606 1015.08 438.883C998.029 409.518 995.234 369.477 1046.79 385.235C1097.97 400.903 1151.62 441.038 1180.92 479.392C1203.27 508.655 1196.82 538.01 1148.46 531.844Z" stroke="#F1B170" stroke-width="5"/>
</g>
<defs>
<clipPath id="clip0_1770_2708">
<rect width="1388" height="1594" fill="white" transform="translate(0 1388) rotate(-90)"/>
</clipPath>
</defs>
</svg>
