    <svg width="178" height="40" fill="none" xmlns="http://www.w3.org/2000/svg">
      <g clipPath="url(#a)">
        <path
          d="M56.05 6.183a7.087 7.087 0 0 0-4.99-4.99C46.684 0 29.076 0 29.076 0S11.466.036 7.092 1.23a7.087 7.087 0 0 0-4.99 4.989C.78 13.993.265 25.839 2.14 33.301a7.087 7.087 0 0 0 4.99 4.99c4.374 1.193 21.983 1.193 21.983 1.193s17.609 0 21.984-1.193a7.086 7.086 0 0 0 4.99-4.99c1.395-7.785 1.825-19.623-.037-27.118Z"
          fill="#A6A6A6"
        />
        <path
          d="m23.471 28.203 14.608-8.461-14.608-8.461v16.922Z"
          fill="#fff"
        />
        <path
          d="M170.307 11.462c1.916 0 3.363.361 4.375 1.048s1.736 1.772 2.17 3.255c.433 1.482.614 3.507.614 6.11v4.23h-9.292v1.302l.144 3.58c.109.795.29 1.374.579 1.735.289.362.759.543 1.374.543.832 0 1.41-.325 1.699-.976.326-.651.47-1.736.506-3.219l4.809.29c.037.217.037.506.037.867 0 2.278-.615 3.978-1.881 5.099-1.265 1.12-3.001 1.699-5.279 1.699-2.748 0-4.664-.868-5.749-2.567-1.084-1.7-1.663-4.375-1.663-7.955v-4.375c.123-6.146 1.204-10.648 7.557-10.666Zm-66.855.47v18.115c0 1.085.108 1.88.361 2.35.514 1.005 1.844.748 2.568.253.417-.282.754-.668.976-1.12V11.931h5.532v24.695h-4.339l-.47-3.037h-.108c-1.194 2.278-2.966 3.435-5.316 3.435-3.617-.01-4.502-2.615-4.713-5.262l-.013-.187c-.027-.4-.042-.802-.046-1.204v-18.44h5.568Zm28.528 0v18.115c0 1.085.108 1.88.362 2.35.513 1.005 1.844.748 2.567.253.417-.282.754-.668.976-1.12V11.931h5.532v24.695h-4.339l-.47-3.037h-.108c-1.193 2.278-2.965 3.435-5.315 3.435-3.618-.01-4.503-2.615-4.713-5.262l-.014-.187c-.026-.4-.042-.802-.046-1.204v-18.44h5.568Zm-44.582-.47c1.808 0 3.29.361 4.375 1.12 1.084.76 1.916 1.917 2.422 3.508.507 1.59.76 3.724.76 6.364v3.579c0 2.64-.253 4.737-.76 6.328-.506 1.59-1.301 2.748-2.422 3.507-1.12.723-2.64 1.12-4.52 1.12-1.953.037-3.471-.36-4.592-1.084-1.12-.759-1.916-1.916-2.386-3.507-.47-1.59-.687-3.688-.687-6.327v-3.58c0-2.64.253-4.81.795-6.4.543-1.627 1.374-2.785 2.531-3.507 1.157-.724 2.64-1.121 4.484-1.121Zm62.697-9.907V14.57h.036c.506-.94 1.157-1.7 2.061-2.278a5.098 5.098 0 0 1 2.856-.867c1.338 0 2.351.361 3.11 1.048.759.723 1.302 1.844 1.627 3.399.316 1.506.495 3.59.506 6.216v4.161c0 3.652-.47 6.364-1.338 8.1-.903 1.735-2.277 2.603-4.158 2.603a5.881 5.881 0 0 1-2.856-.723 5.072 5.072 0 0 1-1.845-1.86l-.071-.13h-.109l-.578 2.351h-4.592V1.555h5.351ZM127.966 2.82v4.483h-5.495v29.324h-5.424V7.304h-5.532V2.82h16.452-.001Zm-59.623 0 .003.014c.053.235.784 3.485 1.588 7.271l.063.3.096.454.064.304.032.153.065.306.032.154.064.307.093.45c.543 2.621 1.061 5.251 1.371 7.136h.145a210.1 210.1 0 0 1 1.188-6.065l.12-.578.184-.866.094-.447a704.213 704.213 0 0 1 1.93-8.774l.01-.046.017-.073h5.532l-6.4 22.816V36.59h-5.46v-10.92h-.036L62.81 2.82h5.533Zm18.946 12.474c-.76 0-1.265.398-1.59 1.23-.326.831-.47 2.097-.47 3.869v7.701c0 1.808.144 3.146.433 3.942.29.795.832 1.193 1.627 1.193.76 0 1.302-.398 1.627-1.193.326-.796.47-2.134.47-3.942v-7.701c0-1.772-.144-3.074-.47-3.87-.325-.83-.867-1.229-1.627-1.229Zm63.782.724a3.32 3.32 0 0 0-.94 1.536l-.036.127V31.71c.448.76 1.085 1.265 2.206 1.302.578 0 1.048-.217 1.41-.651.361-.434.614-1.157.759-2.17.139-.971.211-2.31.217-4.015v-3.433c0-1.952-.073-3.435-.181-4.483-.145-1.05-.325-1.808-.651-2.242-.629-.904-1.988-.893-2.784 0Zm19.128-.832c-.615.036-1.049.217-1.302.543-.289.36-.47.903-.579 1.699-.106.78-.143 3.503-.144 3.612v1.775h4.049V21.25v.03c-.002.547-.013-.318-.038-1.38l-.004-.142c-.023-.933-.056-1.974-.102-2.33-.109-.832-.29-1.41-.579-1.736-.289-.325-.723-.506-1.302-.506h.001Z"
          fill="#A6A6A6"
        />
      </g>
      <defs>
        <clipPath id="a">
          <path
            fill="#fff"
            transform="translate(.915)"
            d="M0 0h176.552v40H0z"
          />
        </clipPath>
      </defs>
    </svg>
